<svg xmlns="http://www.w3.org/2000/svg" xmlns:xlink="http://www.w3.org/1999/xlink" width="500" zoomAndPan="magnify" viewBox="0 0 375 374.999991" height="500" preserveAspectRatio="xMidYMid meet" version="1.0"><defs><g/><clipPath id="f7e88285d4"><path d="M 90.628906 88.96875 L 286.378906 88.96875 L 286.378906 284.71875 L 90.628906 284.71875 Z M 90.628906 88.96875 " clip-rule="nonzero"/></clipPath><clipPath id="e21e253ac8"><path d="M 99 117 L 257 117 L 257 276 L 99 276 Z M 99 117 " clip-rule="nonzero"/></clipPath><clipPath id="d1c33f6570"><path d="M 257 243.0625 L 187.488281 312.578125 L 62.359375 187.449219 L 131.875 117.933594 Z M 257 243.0625 " clip-rule="nonzero"/></clipPath><clipPath id="5ce2f1a8e0"><path d="M 312.941406 187.121094 L 187.8125 312.25 L 62.683594 187.121094 L 187.8125 61.996094 Z M 312.941406 187.121094 " clip-rule="nonzero"/></clipPath><clipPath id="2c1d92a9aa"><path d="M 187 110.882812 L 200 110.882812 L 200 145 L 187 145 Z M 187 110.882812 " clip-rule="nonzero"/></clipPath><clipPath id="52a643cb8e"><path d="M 145.0625 212 L 166 212 L 166 255 L 145.0625 255 Z M 145.0625 212 " clip-rule="nonzero"/></clipPath><clipPath id="ee4d8cfdf7"><path d="M 161 126 L 237.546875 126 L 237.546875 256.527344 L 161 256.527344 Z M 161 126 " clip-rule="nonzero"/></clipPath></defs><rect x="-37.5" width="450" fill="#ffffff" y="-37.499999" height="449.999989" fill-opacity="1"/><rect x="-37.5" width="450" fill="#fffffe" y="-37.499999" height="449.999989" fill-opacity="1"/><g clip-path="url(#f7e88285d4)"><path fill="#0097b2" d="M 286.0625 186.683594 C 286.0625 188.28125 286.023438 189.882812 285.945312 191.476562 C 285.867188 193.074219 285.75 194.671875 285.59375 196.261719 C 285.433594 197.851562 285.238281 199.441406 285.003906 201.023438 C 284.769531 202.605469 284.496094 204.179688 284.183594 205.746094 C 283.871094 207.316406 283.523438 208.875 283.132812 210.425781 C 282.746094 211.976562 282.320312 213.519531 281.855469 215.050781 C 281.390625 216.578125 280.890625 218.097656 280.351562 219.601562 C 279.8125 221.109375 279.234375 222.601562 278.625 224.078125 C 278.011719 225.554688 277.363281 227.015625 276.679688 228.464844 C 275.996094 229.910156 275.277344 231.335938 274.523438 232.746094 C 273.769531 234.15625 272.980469 235.546875 272.160156 236.921875 C 271.339844 238.292969 270.484375 239.640625 269.59375 240.972656 C 268.707031 242.300781 267.785156 243.609375 266.832031 244.894531 C 265.878906 246.179688 264.894531 247.4375 263.882812 248.675781 C 262.867188 249.910156 261.824219 251.121094 260.75 252.304688 C 259.675781 253.492188 258.574219 254.648438 257.441406 255.78125 C 256.3125 256.910156 255.152344 258.011719 253.96875 259.085938 C 252.785156 260.160156 251.574219 261.207031 250.335938 262.21875 C 249.101562 263.234375 247.839844 264.21875 246.554688 265.171875 C 245.269531 266.125 243.964844 267.042969 242.632812 267.933594 C 241.304688 268.820312 239.953125 269.675781 238.582031 270.5 C 237.210938 271.320312 235.820312 272.109375 234.410156 272.863281 C 233 273.617188 231.570312 274.335938 230.125 275.019531 C 228.679688 275.703125 227.21875 276.351562 225.742188 276.960938 C 224.261719 277.574219 222.769531 278.148438 221.265625 278.6875 C 219.761719 279.226562 218.242188 279.726562 216.710938 280.191406 C 215.179688 280.65625 213.640625 281.082031 212.089844 281.472656 C 210.539062 281.859375 208.976562 282.210938 207.410156 282.523438 C 205.839844 282.835938 204.265625 283.109375 202.683594 283.34375 C 201.101562 283.578125 199.515625 283.773438 197.921875 283.929688 C 196.332031 284.085938 194.738281 284.203125 193.140625 284.28125 C 191.542969 284.359375 189.945312 284.402344 188.347656 284.402344 C 186.746094 284.402344 185.148438 284.359375 183.550781 284.28125 C 181.953125 284.203125 180.359375 284.085938 178.769531 283.929688 C 177.175781 283.773438 175.589844 283.578125 174.007812 283.34375 C 172.425781 283.109375 170.851562 282.835938 169.28125 282.523438 C 167.714844 282.210938 166.152344 281.859375 164.601562 281.472656 C 163.050781 281.082031 161.511719 280.65625 159.980469 280.191406 C 158.449219 279.726562 156.933594 279.226562 155.425781 278.6875 C 153.921875 278.148438 152.429688 277.574219 150.949219 276.960938 C 149.472656 276.351562 148.011719 275.703125 146.566406 275.019531 C 145.121094 274.335938 143.691406 273.617188 142.28125 272.863281 C 140.871094 272.109375 139.480469 271.320312 138.109375 270.5 C 136.738281 269.675781 135.386719 268.820312 134.058594 267.933594 C 132.726562 267.042969 131.421875 266.125 130.136719 265.171875 C 128.851562 264.21875 127.589844 263.234375 126.355469 262.21875 C 125.117188 261.207031 123.90625 260.160156 122.722656 259.085938 C 121.539062 258.011719 120.378906 256.910156 119.25 255.78125 C 118.117188 254.648438 117.015625 253.492188 115.941406 252.304688 C 114.867188 251.121094 113.824219 249.910156 112.808594 248.675781 C 111.796875 247.4375 110.8125 246.179688 109.859375 244.894531 C 108.90625 243.609375 107.984375 242.300781 107.097656 240.972656 C 106.207031 239.640625 105.351562 238.292969 104.53125 236.921875 C 103.710938 235.546875 102.921875 234.15625 102.167969 232.746094 C 101.414062 231.335938 100.695312 229.910156 100.011719 228.464844 C 99.328125 227.015625 98.679688 225.554688 98.066406 224.078125 C 97.457031 222.601562 96.878906 221.109375 96.339844 219.601562 C 95.800781 218.097656 95.300781 216.578125 94.835938 215.050781 C 94.371094 213.519531 93.945312 211.976562 93.558594 210.425781 C 93.167969 208.875 92.820312 207.316406 92.507812 205.746094 C 92.195312 204.179688 91.921875 202.605469 91.6875 201.023438 C 91.453125 199.441406 91.257812 197.851562 91.097656 196.261719 C 90.941406 194.671875 90.824219 193.074219 90.746094 191.476562 C 90.667969 189.882812 90.628906 188.28125 90.628906 186.683594 C 90.628906 185.085938 90.667969 183.484375 90.746094 181.890625 C 90.824219 180.292969 90.941406 178.695312 91.097656 177.105469 C 91.257812 175.515625 91.453125 173.925781 91.6875 172.34375 C 91.921875 170.765625 92.195312 169.1875 92.507812 167.621094 C 92.820312 166.050781 93.167969 164.492188 93.558594 162.941406 C 93.945312 161.390625 94.371094 159.847656 94.835938 158.316406 C 95.300781 156.789062 95.800781 155.269531 96.339844 153.765625 C 96.878906 152.257812 97.457031 150.765625 98.066406 149.289062 C 98.679688 147.8125 99.328125 146.351562 100.011719 144.90625 C 100.695312 143.457031 101.414062 142.03125 102.167969 140.621094 C 102.921875 139.210938 103.710938 137.820312 104.53125 136.445312 C 105.351562 135.074219 106.207031 133.726562 107.097656 132.394531 C 107.984375 131.066406 108.90625 129.757812 109.859375 128.472656 C 110.8125 127.1875 111.796875 125.929688 112.808594 124.691406 C 113.824219 123.457031 114.867188 122.246094 115.941406 121.0625 C 117.015625 119.875 118.117188 118.71875 119.25 117.585938 C 120.378906 116.457031 121.539062 115.355469 122.722656 114.28125 C 123.90625 113.207031 125.117188 112.160156 126.355469 111.148438 C 127.589844 110.132812 128.851562 109.148438 130.136719 108.195312 C 131.421875 107.242188 132.726562 106.324219 134.058594 105.433594 C 135.386719 104.546875 136.738281 103.691406 138.109375 102.867188 C 139.480469 102.046875 140.871094 101.257812 142.28125 100.503906 C 143.691406 99.75 145.121094 99.03125 146.566406 98.347656 C 148.011719 97.664062 149.472656 97.015625 150.949219 96.40625 C 152.429688 95.792969 153.921875 95.21875 155.425781 94.679688 C 156.933594 94.140625 158.449219 93.640625 159.980469 93.175781 C 161.511719 92.710938 163.050781 92.285156 164.601562 91.894531 C 166.152344 91.507812 167.714844 91.15625 169.28125 90.84375 C 170.851562 90.53125 172.425781 90.257812 174.007812 90.023438 C 175.589844 89.789062 177.175781 89.59375 178.769531 89.4375 C 180.359375 89.28125 181.953125 89.164062 183.550781 89.085938 C 185.148438 89.007812 186.746094 88.96875 188.347656 88.96875 C 189.945312 88.96875 191.542969 89.007812 193.140625 89.085938 C 194.738281 89.164062 196.332031 89.28125 197.921875 89.4375 C 199.515625 89.59375 201.101562 89.789062 202.683594 90.023438 C 204.265625 90.257812 205.839844 90.53125 207.410156 90.84375 C 208.976562 91.15625 210.539062 91.507812 212.089844 91.894531 C 213.640625 92.285156 215.179688 92.710938 216.710938 93.175781 C 218.242188 93.640625 219.761719 94.140625 221.265625 94.679688 C 222.769531 95.21875 224.261719 95.792969 225.742188 96.40625 C 227.21875 97.015625 228.679688 97.664062 230.125 98.347656 C 231.570312 99.03125 233 99.75 234.410156 100.503906 C 235.820312 101.257812 237.210938 102.046875 238.582031 102.867188 C 239.953125 103.691406 241.304688 104.546875 242.632812 105.433594 C 243.964844 106.324219 245.269531 107.242188 246.554688 108.195312 C 247.839844 109.148438 249.101562 110.132812 250.335938 111.148438 C 251.574219 112.160156 252.785156 113.207031 253.96875 114.28125 C 255.152344 115.355469 256.3125 116.457031 257.441406 117.585938 C 258.574219 118.71875 259.675781 119.875 260.75 121.0625 C 261.824219 122.246094 262.867188 123.457031 263.882812 124.691406 C 264.894531 125.929688 265.878906 127.1875 266.832031 128.472656 C 267.785156 129.757812 268.707031 131.066406 269.59375 132.394531 C 270.484375 133.726562 271.339844 135.074219 272.160156 136.445312 C 272.980469 137.820312 273.769531 139.210938 274.523438 140.621094 C 275.277344 142.03125 275.996094 143.457031 276.679688 144.90625 C 277.363281 146.351562 278.011719 147.8125 278.625 149.289062 C 279.234375 150.765625 279.8125 152.257812 280.351562 153.765625 C 280.890625 155.269531 281.390625 156.789062 281.855469 158.316406 C 282.320312 159.847656 282.746094 161.390625 283.132812 162.941406 C 283.523438 164.492188 283.871094 166.050781 284.183594 167.621094 C 284.496094 169.1875 284.769531 170.765625 285.003906 172.34375 C 285.238281 173.925781 285.433594 175.515625 285.59375 177.105469 C 285.75 178.695312 285.867188 180.292969 285.945312 181.890625 C 286.023438 183.484375 286.0625 185.085938 286.0625 186.683594 Z M 286.0625 186.683594 " fill-opacity="1" fill-rule="nonzero"/></g><g clip-path="url(#e21e253ac8)"><g clip-path="url(#d1c33f6570)"><g clip-path="url(#5ce2f1a8e0)"><path fill="#fffffe" d="M 124.910156 124.445312 C 159.460938 89.898438 215.714844 89.898438 250.265625 124.445312 C 284.8125 158.996094 284.8125 215.25 250.265625 249.800781 C 215.714844 284.347656 159.460938 284.347656 124.910156 249.800781 C 90.363281 215.25 90.363281 158.996094 124.910156 124.445312 Z M 249.335938 248.871094 C 283.394531 214.816406 283.394531 159.425781 249.335938 125.371094 C 215.28125 91.316406 159.894531 91.316406 125.835938 125.371094 C 91.78125 159.425781 91.78125 214.816406 125.835938 248.871094 C 159.894531 282.929688 215.28125 282.929688 249.335938 248.871094 Z M 249.335938 248.871094 " fill-opacity="1" fill-rule="nonzero"/></g></g></g><g fill="#fffffe" fill-opacity="1"><g transform="translate(147.619862, 111.628688)"><g><path d="M 4.5625 -4.09375 L 0.953125 -2.46875 L 0.984375 -0.4375 L -0.015625 0 L 0 -8.140625 L 0.953125 -8.5625 L 7.078125 -3.1875 L 6.0625 -2.734375 Z M 3.875 -4.71875 L 0.921875 -7.34375 L 0.953125 -3.40625 Z M 3.875 -4.71875 "/></g></g></g><g fill="#fffffe" fill-opacity="1"><g transform="translate(157.015919, 107.532632)"><g><path d="M 4.96875 -9.296875 L 7.15625 -2.203125 L 6.328125 -1.953125 L 0.453125 -5.921875 L 2.078125 -0.640625 L 1.0625 -0.328125 L -1.125 -7.421875 L -0.296875 -7.671875 L 5.59375 -3.71875 L 3.96875 -9 Z M 4.96875 -9.296875 "/></g></g></g><g fill="#fffffe" fill-opacity="1"><g transform="translate(167.648718, 104.41759)"><g><path d="M 6.109375 -8.578125 L 7.375 -1.265625 L 6.53125 -1.125 L 1.203125 -5.828125 L 2.140625 -0.375 L 1.09375 -0.1875 L -0.171875 -7.5 L 0.6875 -7.65625 L 6.015625 -2.953125 L 5.078125 -8.40625 Z M 6.109375 -8.578125 "/></g></g></g><g fill="#fffffe" fill-opacity="1"><g transform="translate(178.608353, 102.713896)"><g><path d="M 5.75 -2.125 L 1.796875 -1.953125 L 1.078125 -0.046875 L -0.015625 0 L 3 -7.5625 L 4.046875 -7.609375 L 7.75 -0.359375 L 6.65625 -0.3125 Z M 5.34375 -2.953125 L 3.5625 -6.515625 L 2.140625 -2.8125 Z M 5.34375 -2.953125 "/></g></g></g><g fill="#fffffe" fill-opacity="1"><g transform="translate(188.947135, 102.459824)"><g/></g></g><g fill="#fffffe" fill-opacity="1"><g transform="translate(194.389565, 102.715018)"><g><path d="M 3.953125 -2.78125 L 2.421875 -1.609375 L 2.15625 0.296875 L 1.09375 0.15625 L 2.09375 -7.203125 L 3.15625 -7.0625 L 2.59375 -2.953125 L 7.140625 -6.515625 L 8.34375 -6.359375 L 4.75 -3.46875 L 7.546875 1.03125 L 6.296875 0.859375 Z M 3.953125 -2.78125 "/></g></g></g><g fill="#fffffe" fill-opacity="1"><g transform="translate(204.476351, 104.324815)"><g><path d="M 1.15625 0.328125 C 0.96875 0.285156 0.816406 0.179688 0.703125 0.015625 C 0.597656 -0.140625 0.570312 -0.328125 0.625 -0.546875 C 0.664062 -0.734375 0.769531 -0.878906 0.9375 -0.984375 C 1.113281 -1.097656 1.296875 -1.132812 1.484375 -1.09375 C 1.679688 -1.050781 1.828125 -0.945312 1.921875 -0.78125 C 2.023438 -0.613281 2.054688 -0.429688 2.015625 -0.234375 C 1.960938 -0.015625 1.851562 0.140625 1.6875 0.234375 C 1.53125 0.335938 1.351562 0.367188 1.15625 0.328125 Z M 1.15625 0.328125 "/></g></g></g><g fill="#fffffe" fill-opacity="1"><g transform="translate(209.422711, 105.531974)"><g/></g></g><g fill="#fffffe" fill-opacity="1"><g transform="translate(214.659822, 107.114284)"><g><path d="M 4.75 -5.125 L 2.390625 -6.046875 L 2.71875 -6.90625 L 8.421875 -4.6875 L 8.09375 -3.828125 L 5.734375 -4.75 L 3.390625 1.3125 L 2.40625 0.9375 Z M 4.75 -5.125 "/></g></g></g><g fill="#fffffe" fill-opacity="1"><g transform="translate(222.784297, 110.338367)"><g><path d="M 10.078125 -3.078125 L 6.625 3.484375 L 5.703125 3 L 7.25 0.0625 L 3.46875 -1.921875 L 1.921875 1.015625 L 0.984375 0.515625 L 4.4375 -6.046875 L 5.375 -5.546875 L 3.890625 -2.734375 L 7.671875 -0.75 L 9.15625 -3.5625 Z M 10.078125 -3.078125 "/></g></g></g><g fill="#fffffe" fill-opacity="1"><g transform="translate(232.513063, 115.63108)"><g><path d="M 3.59375 2.625 C 2.988281 2.195312 2.53125 1.675781 2.21875 1.0625 C 1.914062 0.457031 1.789062 -0.175781 1.84375 -0.84375 C 1.90625 -1.519531 2.144531 -2.148438 2.5625 -2.734375 C 2.976562 -3.316406 3.488281 -3.742188 4.09375 -4.015625 C 4.707031 -4.296875 5.351562 -4.394531 6.03125 -4.3125 C 6.71875 -4.238281 7.363281 -3.988281 7.96875 -3.5625 C 8.582031 -3.125 9.039062 -2.597656 9.34375 -1.984375 C 9.644531 -1.378906 9.765625 -0.738281 9.703125 -0.0625 C 9.648438 0.601562 9.414062 1.226562 9 1.8125 C 8.582031 2.40625 8.066406 2.835938 7.453125 3.109375 C 6.847656 3.378906 6.207031 3.472656 5.53125 3.390625 C 4.851562 3.316406 4.207031 3.0625 3.59375 2.625 Z M 4.140625 1.859375 C 4.585938 2.179688 5.054688 2.367188 5.546875 2.421875 C 6.046875 2.472656 6.519531 2.390625 6.96875 2.171875 C 7.425781 1.960938 7.8125 1.640625 8.125 1.203125 C 8.4375 0.765625 8.613281 0.296875 8.65625 -0.203125 C 8.707031 -0.703125 8.625 -1.175781 8.40625 -1.625 C 8.195312 -2.082031 7.867188 -2.472656 7.421875 -2.796875 C 6.972656 -3.109375 6.5 -3.289062 6 -3.34375 C 5.5 -3.394531 5.019531 -3.3125 4.5625 -3.09375 C 4.113281 -2.882812 3.734375 -2.5625 3.421875 -2.125 C 3.109375 -1.6875 2.925781 -1.21875 2.875 -0.71875 C 2.832031 -0.21875 2.921875 0.253906 3.140625 0.703125 C 3.359375 1.160156 3.691406 1.546875 4.140625 1.859375 Z M 4.140625 1.859375 "/></g></g></g><g fill="#fffffe" fill-opacity="1"><g transform="translate(241.708819, 122.281917)"><g><path d="M 5.828125 5.46875 L 9.53125 1.53125 L 4.484375 2.96875 L 4.140625 2.640625 L 5.21875 -2.46875 L 1.546875 1.453125 L 0.8125 0.765625 L 5.890625 -4.640625 L 6.53125 -4.046875 L 5.203125 1.859375 L 11 0.15625 L 11.640625 0.75 L 6.5625 6.15625 Z M 5.828125 5.46875 "/></g></g></g><g fill="#fffffe" fill-opacity="1"><g transform="translate(250.714178, 131.064356)"><g><path d="M 5.140625 3.359375 L 2.640625 0.296875 L 0.6875 0.828125 L -0.015625 -0.015625 L 7.859375 -2.09375 L 8.53125 -1.28125 L 4.90625 6.015625 L 4.203125 5.15625 Z M 5.546875 2.53125 L 7.34375 -1.015625 L 3.53125 0.046875 Z M 5.546875 2.53125 "/></g></g></g><g fill="#fffffe" fill-opacity="1"><g transform="translate(257.078077, 139.136963)"><g><path d="M 1.71875 2.8125 C 1.40625 2.332031 1.179688 1.828125 1.046875 1.296875 C 0.910156 0.765625 0.875 0.304688 0.9375 -0.078125 L 1.859375 -0.203125 C 1.796875 0.160156 1.816406 0.570312 1.921875 1.03125 C 2.023438 1.5 2.207031 1.929688 2.46875 2.328125 C 2.789062 2.828125 3.117188 3.148438 3.453125 3.296875 C 3.796875 3.441406 4.113281 3.421875 4.40625 3.234375 C 4.625 3.097656 4.753906 2.914062 4.796875 2.6875 C 4.835938 2.46875 4.828125 2.226562 4.765625 1.96875 C 4.710938 1.71875 4.609375 1.375 4.453125 0.9375 C 4.265625 0.40625 4.132812 -0.0390625 4.0625 -0.40625 C 3.988281 -0.769531 4 -1.128906 4.09375 -1.484375 C 4.195312 -1.835938 4.445312 -2.140625 4.84375 -2.390625 C 5.175781 -2.609375 5.53125 -2.71875 5.90625 -2.71875 C 6.289062 -2.71875 6.679688 -2.585938 7.078125 -2.328125 C 7.472656 -2.078125 7.84375 -1.6875 8.1875 -1.15625 C 8.414062 -0.789062 8.59375 -0.398438 8.71875 0.015625 C 8.851562 0.429688 8.914062 0.828125 8.90625 1.203125 L 8.015625 1.359375 C 8.015625 0.992188 7.960938 0.640625 7.859375 0.296875 C 7.753906 -0.046875 7.609375 -0.363281 7.421875 -0.65625 C 7.085938 -1.164062 6.742188 -1.488281 6.390625 -1.625 C 6.046875 -1.757812 5.734375 -1.734375 5.453125 -1.546875 C 5.242188 -1.410156 5.117188 -1.226562 5.078125 -1 C 5.035156 -0.769531 5.039062 -0.523438 5.09375 -0.265625 C 5.15625 -0.015625 5.265625 0.320312 5.421875 0.75 C 5.609375 1.28125 5.734375 1.722656 5.796875 2.078125 C 5.867188 2.441406 5.851562 2.800781 5.75 3.15625 C 5.65625 3.507812 5.410156 3.8125 5.015625 4.0625 C 4.691406 4.269531 4.335938 4.375 3.953125 4.375 C 3.578125 4.375 3.191406 4.242188 2.796875 3.984375 C 2.410156 3.722656 2.050781 3.332031 1.71875 2.8125 Z M 1.71875 2.8125 "/></g></g></g><g fill="#fffffe" fill-opacity="1"><g transform="translate(261.891254, 146.963051)"><g/></g></g><g fill="#fffffe" fill-opacity="1"><g transform="translate(264.404733, 151.863465)"><g><path d="M 3.3125 -0.78125 L 4.453125 1.8125 L 3.65625 2.15625 L 2.515625 -0.4375 Z M 3.3125 -0.78125 "/></g></g></g><g fill="#fffffe" fill-opacity="1"><g transform="translate(267.010247, 158.051159)"><g/></g></g><g fill="#fffffe" fill-opacity="1"><g transform="translate(268.846517, 163.17869)"><g><path d="M 3.265625 5.1875 L 2.265625 1.359375 L 0.265625 1.046875 L 0 -0.015625 L 8.03125 1.375 L 8.28125 2.390625 L 1.953125 7.515625 L 1.671875 6.4375 Z M 3.984375 4.625 L 7.09375 2.15625 L 3.171875 1.515625 Z M 3.984375 4.625 "/></g></g></g><g fill="#fffffe" fill-opacity="1"><g transform="translate(271.285715, 173.135459)"><g><path d="M 0.46875 4.171875 C 0.34375 3.191406 0.519531 2.390625 1 1.765625 C 1.488281 1.140625 2.257812 0.753906 3.3125 0.609375 L 7.5 0.0625 L 7.640625 1.125 L 3.484375 1.671875 C 1.921875 1.878906 1.226562 2.671875 1.40625 4.046875 C 1.488281 4.722656 1.742188 5.210938 2.171875 5.515625 C 2.609375 5.828125 3.222656 5.929688 4.015625 5.828125 L 8.171875 5.28125 L 8.3125 6.28125 L 4.125 6.828125 C 3.0625 6.972656 2.21875 6.8125 1.59375 6.34375 C 0.96875 5.875 0.59375 5.148438 0.46875 4.171875 Z M 0.46875 4.171875 "/></g></g></g><g fill="#fffffe" fill-opacity="1"><g transform="translate(272.500611, 183.965995)"><g><path d="M 6.546875 2.46875 L 6.5 -0.0625 L 7.421875 -0.078125 L 7.515625 6.046875 L 6.59375 6.0625 L 6.5625 3.53125 L 0.0625 3.640625 L 0.046875 2.578125 Z M 6.546875 2.46875 "/></g></g></g><g fill="#fffffe" fill-opacity="1"><g transform="translate(272.572502, 192.702778)"><g><path d="M -0.53125 4.421875 C -0.445312 3.679688 -0.210938 3.03125 0.171875 2.46875 C 0.554688 1.90625 1.050781 1.484375 1.65625 1.203125 C 2.269531 0.921875 2.929688 0.816406 3.640625 0.890625 C 4.347656 0.960938 4.972656 1.195312 5.515625 1.59375 C 6.054688 1.988281 6.460938 2.5 6.734375 3.125 C 7.003906 3.757812 7.097656 4.445312 7.015625 5.1875 C 6.941406 5.925781 6.710938 6.578125 6.328125 7.140625 C 5.941406 7.710938 5.441406 8.132812 4.828125 8.40625 C 4.210938 8.6875 3.550781 8.789062 2.84375 8.71875 C 2.125 8.644531 1.5 8.410156 0.96875 8.015625 C 0.4375 7.628906 0.0351562 7.117188 -0.234375 6.484375 C -0.503906 5.847656 -0.601562 5.160156 -0.53125 4.421875 Z M 0.40625 4.53125 C 0.351562 5.070312 0.425781 5.566406 0.625 6.015625 C 0.820312 6.472656 1.125 6.847656 1.53125 7.140625 C 1.945312 7.441406 2.421875 7.617188 2.953125 7.671875 C 3.492188 7.722656 3.988281 7.644531 4.4375 7.4375 C 4.894531 7.226562 5.269531 6.921875 5.5625 6.515625 C 5.851562 6.109375 6.023438 5.632812 6.078125 5.09375 C 6.140625 4.550781 6.066406 4.046875 5.859375 3.578125 C 5.648438 3.109375 5.34375 2.726562 4.9375 2.4375 C 4.539062 2.144531 4.070312 1.972656 3.53125 1.921875 C 3 1.867188 2.5 1.941406 2.03125 2.140625 C 1.570312 2.347656 1.203125 2.660156 0.921875 3.078125 C 0.640625 3.503906 0.46875 3.988281 0.40625 4.53125 Z M 0.40625 4.53125 "/></g></g></g><g fill="#fffffe" fill-opacity="1"><g transform="translate(271.239542, 204.008)"><g><path d="M -1.359375 5.90625 L 1.21875 4.875 C 1.238281 4.664062 1.265625 4.503906 1.296875 4.390625 L 1.703125 2.609375 L -0.484375 2.109375 L -0.25 1.078125 L 6.984375 2.734375 L 6.34375 5.546875 C 6.125 6.484375 5.722656 7.164062 5.140625 7.59375 C 4.566406 8.03125 3.890625 8.160156 3.109375 7.984375 C 2.554688 7.859375 2.113281 7.613281 1.78125 7.25 C 1.457031 6.894531 1.265625 6.441406 1.203125 5.890625 L -1.609375 7.03125 Z M 2.1875 4.578125 C 2.039062 5.234375 2.066406 5.765625 2.265625 6.171875 C 2.472656 6.578125 2.835938 6.835938 3.359375 6.953125 C 3.890625 7.078125 4.332031 7 4.6875 6.71875 C 5.039062 6.445312 5.289062 5.984375 5.4375 5.328125 L 5.84375 3.5625 L 2.59375 2.8125 Z M 2.1875 4.578125 "/></g></g></g><g fill="#fffffe" fill-opacity="1"><g transform="translate(268.718202, 213.976281)"><g><path d="M 6.703125 3.375 L 6.359375 4.390625 L -0.6875 2.0625 L -0.34375 1.046875 Z M 6.703125 3.375 "/></g></g></g><g fill="#fffffe" fill-opacity="1"><g transform="translate(266.877723, 219.541066)"><g><path d="M 3.734375 9.859375 L -3.046875 6.84375 L -2.6875 6.046875 L 4.15625 4.234375 L -0.890625 1.984375 L -0.453125 1.015625 L 6.328125 4.03125 L 5.96875 4.828125 L -0.875 6.640625 L 4.171875 8.890625 Z M 3.734375 9.859375 "/></g></g></g><path fill="#fffffe" d="M 232.402344 198.875 L 232.417969 198.742188 L 232.457031 198.484375 C 232.46875 198.394531 232.480469 198.308594 232.488281 198.222656 L 232.535156 197.699219 C 232.542969 197.613281 232.550781 197.527344 232.550781 197.441406 L 232.566406 196.917969 C 232.566406 196.875 232.570312 196.832031 232.570312 196.789062 L 232.566406 196.660156 L 232.5625 196.402344 C 232.558594 196.230469 232.558594 196.054688 232.542969 195.886719 L 232.507812 195.371094 C 232.503906 195.285156 232.488281 195.203125 232.480469 195.117188 L 232.449219 194.863281 C 232.417969 194.523438 232.355469 194.195312 232.300781 193.859375 L 232.28125 193.734375 L 232.253906 193.613281 L 232.203125 193.367188 C 232.167969 193.203125 232.136719 193.035156 232.09375 192.875 L 231.972656 192.390625 L 231.910156 192.148438 C 231.886719 192.070312 231.863281 191.988281 231.839844 191.910156 C 231.746094 191.59375 231.65625 191.273438 231.542969 190.964844 L 231.386719 190.496094 C 231.332031 190.34375 231.269531 190.191406 231.210938 190.039062 C 230.746094 188.816406 230.199219 187.644531 229.597656 186.511719 L 229.371094 186.089844 L 229.316406 185.984375 L 229.257812 185.878906 L 229.140625 185.671875 L 228.902344 185.257812 L 228.785156 185.050781 L 228.660156 184.847656 C 228.496094 184.574219 228.335938 184.304688 228.167969 184.035156 C 228 183.765625 227.828125 183.5 227.65625 183.234375 C 226.96875 182.179688 226.246094 181.15625 225.5 180.15625 C 225.3125 179.90625 225.121094 179.660156 224.933594 179.414062 L 224.648438 179.042969 L 224.359375 178.679688 C 224.164062 178.4375 223.972656 178.195312 223.777344 177.953125 C 223.582031 177.714844 223.382812 177.476562 223.1875 177.238281 L 222.890625 176.882812 L 222.589844 176.53125 C 222.390625 176.296875 222.191406 176.0625 221.988281 175.832031 C 221.789062 175.597656 221.582031 175.371094 221.378906 175.140625 L 221.074219 174.792969 L 220.921875 174.621094 L 220.769531 174.453125 C 219.832031 173.421875 218.882812 172.414062 217.917969 171.425781 C 217.503906 172.230469 217.085938 173.039062 216.660156 173.851562 C 216.921875 174.132812 217.183594 174.417969 217.445312 174.703125 L 217.785156 175.078125 L 217.953125 175.261719 L 218.121094 175.453125 C 218.34375 175.703125 218.570312 175.957031 218.792969 176.207031 L 218.960938 176.398438 L 219.125 176.585938 L 219.453125 176.96875 C 219.671875 177.226562 219.894531 177.480469 220.109375 177.742188 C 221.84375 179.808594 223.503906 181.949219 224.980469 184.207031 C 225.71875 185.335938 226.414062 186.492188 227.035156 187.679688 C 227.660156 188.863281 228.214844 190.082031 228.660156 191.320312 C 228.691406 191.398438 228.714844 191.476562 228.742188 191.554688 L 228.9375 192.140625 L 228.972656 192.257812 C 229.058594 192.570312 229.160156 192.886719 229.230469 193.199219 L 229.289062 193.4375 C 229.308594 193.515625 229.332031 193.597656 229.34375 193.675781 L 229.441406 194.152344 L 229.464844 194.269531 L 229.484375 194.386719 L 229.5625 194.863281 L 229.570312 194.921875 L 229.578125 194.984375 L 229.589844 195.101562 L 229.644531 195.578125 L 229.675781 196.050781 L 229.683594 196.171875 C 229.683594 196.210938 229.683594 196.25 229.683594 196.289062 L 229.6875 196.523438 L 229.691406 196.761719 C 229.691406 196.839844 229.6875 196.917969 229.683594 196.996094 L 229.671875 197.347656 C 229.671875 197.386719 229.667969 197.425781 229.664062 197.464844 L 229.621094 197.929688 L 229.554688 198.386719 C 229.546875 198.464844 229.53125 198.539062 229.515625 198.617188 L 229.46875 198.84375 C 229.210938 200.046875 228.734375 201.191406 228.027344 202.21875 C 227.675781 202.734375 227.277344 203.222656 226.835938 203.683594 C 226.722656 203.796875 226.617188 203.914062 226.496094 204.023438 L 226.324219 204.1875 C 226.265625 204.242188 226.207031 204.300781 226.144531 204.351562 L 225.78125 204.671875 L 225.398438 204.976562 C 224.882812 205.378906 224.339844 205.753906 223.773438 206.105469 L 223.34375 206.363281 C 223.199219 206.445312 223.050781 206.527344 222.90625 206.609375 C 222.761719 206.695312 222.609375 206.769531 222.460938 206.847656 C 222.308594 206.929688 222.160156 207.007812 222.007812 207.082031 C 221.402344 207.386719 220.777344 207.660156 220.140625 207.925781 C 219.507812 208.1875 218.859375 208.421875 218.203125 208.652344 C 217.0625 209.039062 215.902344 209.378906 214.726562 209.679688 C 213.554688 209.976562 212.367188 210.238281 211.175781 210.464844 C 208.789062 210.921875 206.378906 211.253906 203.960938 211.503906 C 200.214844 211.886719 196.460938 212.074219 192.726562 212.136719 C 192.007812 213.050781 191.285156 213.945312 190.5625 214.816406 C 190.882812 214.820312 191.207031 214.824219 191.53125 214.824219 C 192.910156 214.832031 194.296875 214.820312 195.683594 214.785156 C 197.074219 214.753906 198.46875 214.703125 199.867188 214.625 C 201.261719 214.546875 202.664062 214.445312 204.070312 214.316406 C 205.472656 214.183594 206.882812 214.027344 208.292969 213.828125 C 209.703125 213.632812 211.113281 213.402344 212.523438 213.121094 L 213.054688 213.015625 L 213.582031 212.902344 L 213.847656 212.847656 L 214.109375 212.789062 L 214.636719 212.667969 L 215.167969 212.539062 L 215.429688 212.476562 L 215.695312 212.40625 L 216.222656 212.273438 L 216.746094 212.125 L 217.011719 212.054688 L 217.796875 211.820312 L 218.324219 211.660156 C 218.410156 211.628906 218.496094 211.605469 218.585938 211.574219 L 218.847656 211.488281 C 219.542969 211.261719 220.234375 211.007812 220.925781 210.734375 C 222.300781 210.1875 223.664062 209.550781 224.972656 208.773438 C 225.136719 208.675781 225.300781 208.582031 225.460938 208.476562 L 225.941406 208.164062 C 226.261719 207.949219 226.578125 207.734375 226.886719 207.496094 C 227.503906 207.03125 228.101562 206.523438 228.664062 205.96875 C 229.226562 205.410156 229.75 204.800781 230.21875 204.144531 C 230.691406 203.488281 231.101562 202.78125 231.445312 202.039062 C 231.515625 201.878906 231.589844 201.714844 231.65625 201.550781 L 231.84375 201.054688 C 231.859375 201.011719 231.875 200.972656 231.890625 200.929688 L 231.929688 200.800781 L 232.011719 200.550781 L 232.089844 200.296875 L 232.15625 200.039062 L 232.21875 199.78125 C 232.242188 199.695312 232.265625 199.609375 232.277344 199.523438 L 232.378906 199.003906 C 232.390625 198.960938 232.394531 198.917969 232.402344 198.875 " fill-opacity="1" fill-rule="nonzero"/><path fill="#fffffe" d="M 204.957031 162.078125 C 205.421875 161.460938 205.886719 160.855469 206.355469 160.261719 C 206.296875 160.203125 206.234375 160.140625 206.175781 160.082031 C 205.746094 160.585938 205.261719 161.167969 204.730469 161.839844 C 204.738281 161.847656 204.746094 161.855469 204.753906 161.863281 L 204.957031 162.078125 " fill-opacity="1" fill-rule="nonzero"/><g clip-path="url(#2c1d92a9aa)"><path fill="#fffffe" d="M 193.386719 142.996094 C 192.320312 141.042969 191.359375 139.054688 190.554688 137.019531 C 190.15625 136.003906 189.796875 134.976562 189.488281 133.941406 C 189.183594 132.90625 188.921875 131.863281 188.734375 130.808594 C 188.355469 128.710938 188.238281 126.578125 188.5 124.507812 C 188.636719 123.472656 188.871094 122.457031 189.207031 121.476562 C 189.539062 120.5 189.976562 119.554688 190.507812 118.671875 C 191.035156 117.785156 191.65625 116.957031 192.351562 116.195312 C 193.042969 115.429688 193.804688 114.730469 194.613281 114.09375 C 195.421875 113.453125 196.277344 112.878906 197.15625 112.347656 C 197.378906 112.21875 197.601562 112.089844 197.824219 111.960938 C 198.046875 111.839844 198.273438 111.714844 198.5 111.59375 C 198.722656 111.472656 198.957031 111.363281 199.1875 111.246094 C 199.414062 111.136719 199.640625 111.015625 199.875 110.914062 C 198.835938 111.335938 197.804688 111.808594 196.800781 112.355469 C 195.796875 112.898438 194.824219 113.515625 193.90625 114.214844 C 193.675781 114.390625 193.453125 114.578125 193.222656 114.757812 C 193.003906 114.945312 192.785156 115.140625 192.566406 115.332031 C 192.460938 115.433594 192.355469 115.535156 192.25 115.636719 L 192.09375 115.785156 C 192.039062 115.835938 191.984375 115.886719 191.9375 115.941406 C 191.835938 116.046875 191.734375 116.152344 191.632812 116.261719 L 191.480469 116.417969 C 191.429688 116.472656 191.382812 116.53125 191.335938 116.585938 C 190.554688 117.464844 189.863281 118.4375 189.285156 119.484375 C 188.714844 120.535156 188.265625 121.667969 187.941406 122.835938 C 187.921875 122.910156 187.902344 122.984375 187.886719 123.058594 L 187.832031 123.277344 L 187.777344 123.5 L 187.75 123.613281 L 187.730469 123.722656 C 187.671875 124.023438 187.605469 124.320312 187.5625 124.625 C 187.539062 124.773438 187.515625 124.925781 187.492188 125.078125 C 187.476562 125.226562 187.457031 125.378906 187.441406 125.53125 L 187.414062 125.761719 C 187.40625 125.835938 187.402344 125.914062 187.398438 125.988281 C 187.386719 126.144531 187.375 126.296875 187.363281 126.449219 C 187.292969 127.675781 187.335938 128.914062 187.46875 130.144531 C 187.480469 130.300781 187.503906 130.453125 187.523438 130.609375 C 187.542969 130.761719 187.5625 130.914062 187.582031 131.070312 C 187.605469 131.222656 187.628906 131.375 187.65625 131.53125 C 187.679688 131.683594 187.703125 131.835938 187.730469 131.988281 C 187.789062 132.296875 187.84375 132.601562 187.910156 132.90625 C 187.941406 133.058594 187.976562 133.210938 188.007812 133.363281 C 188.042969 133.515625 188.082031 133.667969 188.117188 133.820312 C 188.699219 136.25 189.5625 138.625 190.582031 140.945312 C 191.113281 142.144531 191.6875 143.332031 192.300781 144.5 C 192.695312 144.054688 193.089844 143.609375 193.488281 143.171875 C 193.453125 143.113281 193.421875 143.054688 193.386719 142.996094 " fill-opacity="1" fill-rule="nonzero"/></g><path fill="#fffffe" d="M 213.535156 167.117188 C 213.449219 167.035156 213.363281 166.953125 213.273438 166.871094 C 212.8125 167.3125 212.558594 167.523438 212.558594 167.523438 C 212.878906 167.40625 213.203125 167.269531 213.535156 167.117188 " fill-opacity="1" fill-rule="nonzero"/><g clip-path="url(#52a643cb8e)"><path fill="#fffffe" d="M 165.316406 212.269531 C 165.023438 212.308594 164.730469 212.359375 164.4375 212.40625 C 163.265625 212.59375 162.097656 212.820312 160.941406 213.089844 C 159.785156 213.359375 158.640625 213.675781 157.511719 214.050781 C 157.226562 214.140625 156.949219 214.242188 156.667969 214.339844 L 156.457031 214.417969 L 156.25 214.496094 L 155.832031 214.65625 C 155.695312 214.710938 155.558594 214.769531 155.417969 214.824219 L 155.007812 214.996094 L 154.597656 215.179688 C 154.460938 215.242188 154.328125 215.300781 154.191406 215.367188 L 153.789062 215.5625 C 153.65625 215.625 153.523438 215.699219 153.390625 215.765625 L 153.191406 215.871094 L 153.09375 215.921875 L 152.996094 215.976562 L 152.601562 216.195312 C 152.085938 216.496094 151.574219 216.8125 151.082031 217.160156 L 150.898438 217.289062 C 150.835938 217.332031 150.777344 217.378906 150.71875 217.425781 C 150.597656 217.515625 150.476562 217.605469 150.355469 217.695312 L 150.003906 217.980469 L 149.917969 218.050781 L 149.660156 218.273438 C 149.207031 218.671875 148.773438 219.09375 148.371094 219.550781 C 147.96875 220.003906 147.59375 220.480469 147.253906 220.984375 C 146.917969 221.488281 146.617188 222.019531 146.355469 222.5625 C 145.835938 223.65625 145.480469 224.816406 145.292969 225.988281 C 145.101562 227.160156 145.0625 228.339844 145.144531 229.496094 C 145.222656 230.652344 145.410156 231.785156 145.675781 232.886719 C 146.210938 235.089844 147.035156 237.167969 147.992188 239.140625 C 148.953125 241.117188 150.058594 242.988281 151.238281 244.78125 C 152.417969 246.574219 153.679688 248.285156 154.992188 249.929688 C 156.308594 251.570312 157.675781 253.144531 159.097656 254.640625 C 157.621094 252.914062 156.21875 251.101562 154.875 249.210938 C 153.535156 247.324219 152.261719 245.359375 151.101562 243.304688 C 149.941406 241.253906 148.890625 239.113281 148.054688 236.871094 C 147.640625 235.75 147.277344 234.605469 147.003906 233.441406 C 146.726562 232.273438 146.535156 231.085938 146.464844 229.894531 C 146.394531 228.699219 146.453125 227.5 146.675781 226.335938 C 146.902344 225.171875 147.296875 224.042969 147.867188 223.007812 C 148.4375 221.972656 149.183594 221.035156 150.050781 220.210938 C 150.488281 219.800781 150.953125 219.417969 151.4375 219.058594 C 151.929688 218.703125 152.441406 218.378906 152.96875 218.070312 L 153.371094 217.847656 C 153.503906 217.773438 153.640625 217.707031 153.777344 217.632812 C 153.847656 217.597656 153.914062 217.5625 153.984375 217.53125 L 154.398438 217.328125 C 154.46875 217.296875 154.535156 217.261719 154.609375 217.230469 L 155.03125 217.042969 C 155.101562 217.007812 155.171875 216.980469 155.246094 216.949219 L 155.460938 216.863281 C 155.742188 216.738281 156.035156 216.632812 156.328125 216.519531 C 157.496094 216.089844 158.703125 215.734375 159.929688 215.429688 C 161.160156 215.128906 162.410156 214.886719 163.675781 214.691406 C 164.238281 214.605469 164.800781 214.527344 165.363281 214.457031 C 165.363281 213.730469 165.371094 212.996094 165.386719 212.257812 C 165.363281 212.261719 165.339844 212.265625 165.316406 212.269531 " fill-opacity="1" fill-rule="nonzero"/></g><path fill="#fffffe" d="M 177.945312 211.769531 C 177.621094 212.546875 177.296875 213.335938 176.972656 214.136719 C 177.234375 214.160156 177.492188 214.183594 177.757812 214.207031 C 178.070312 213.410156 178.390625 212.613281 178.710938 211.816406 C 178.457031 211.800781 178.199219 211.785156 177.945312 211.769531 " fill-opacity="1" fill-rule="nonzero"/><g clip-path="url(#ee4d8cfdf7)"><path fill="#fffffe" d="M 165.46875 250.992188 C 165.289062 251.304688 164.917969 251.472656 164.566406 251.402344 C 163.984375 251.28125 163.691406 250.636719 163.992188 250.121094 C 164.171875 249.8125 164.542969 249.644531 164.894531 249.714844 C 165.476562 249.835938 165.769531 250.480469 165.46875 250.992188 Z M 198.640625 201.148438 C 197.214844 202.074219 195.714844 202.980469 194.257812 203.722656 C 193.890625 203.90625 193.535156 204.082031 193.179688 204.246094 C 192.828125 204.410156 192.476562 204.5625 192.136719 204.699219 C 191.453125 204.972656 190.792969 205.1875 190.179688 205.324219 C 190.179688 205.324219 190.53125 205.085938 191.183594 204.570312 C 191.507812 204.3125 191.90625 203.984375 192.375 203.582031 C 192.609375 203.382812 192.859375 203.164062 193.132812 202.929688 C 193.402344 202.695312 193.6875 202.441406 193.988281 202.164062 C 194.59375 201.617188 195.257812 200.992188 195.976562 200.285156 C 196.703125 199.582031 197.488281 198.800781 198.320312 197.933594 C 199.144531 197.0625 200.046875 196.125 200.976562 195.09375 C 201.90625 194.054688 202.902344 192.953125 203.929688 191.753906 C 206.191406 189.136719 208.167969 186.28125 209.875 183.296875 C 210.066406 182.953125 210.261719 182.605469 210.457031 182.257812 C 210.652344 181.914062 210.851562 181.566406 211.042969 181.21875 C 211.238281 180.871094 211.433594 180.523438 211.625 180.171875 C 211.71875 179.996094 211.816406 179.820312 211.910156 179.644531 C 212.007812 179.46875 212.105469 179.292969 212.203125 179.121094 C 213.320312 177.070312 214.398438 175.054688 215.4375 173.066406 C 215.820312 172.332031 216.195312 171.605469 216.566406 170.882812 C 216.71875 170.589844 216.867188 170.296875 217.015625 170.007812 C 218.527344 167.042969 219.949219 164.164062 221.292969 161.382812 C 220.917969 161.664062 220.53125 161.949219 220.136719 162.238281 C 220.035156 162.308594 219.9375 162.378906 219.835938 162.453125 C 219.738281 162.523438 219.640625 162.597656 219.539062 162.671875 C 219.339844 162.816406 219.140625 162.964844 218.9375 163.109375 C 218.53125 163.402344 218.117188 163.6875 217.707031 163.972656 C 217.296875 164.257812 216.882812 164.539062 216.472656 164.8125 C 216.265625 164.945312 216.058594 165.082031 215.851562 165.210938 C 215.75 165.273438 215.644531 165.335938 215.542969 165.402344 C 215.441406 165.464844 215.339844 165.53125 215.238281 165.59375 C 214.835938 165.84375 214.429688 166.082031 214.035156 166.300781 C 213.636719 166.519531 213.242188 166.71875 212.859375 166.898438 C 212.78125 166.9375 212.703125 166.972656 212.625 167.007812 C 212.328125 167.144531 212.035156 167.269531 211.746094 167.375 C 211.746094 167.375 211.972656 167.183594 212.390625 166.789062 C 212.394531 166.785156 212.394531 166.78125 212.398438 166.78125 C 212.449219 166.730469 212.507812 166.679688 212.566406 166.621094 C 212.625 166.566406 212.6875 166.507812 212.753906 166.445312 C 212.882812 166.320312 213.027344 166.183594 213.179688 166.035156 C 213.488281 165.734375 213.839844 165.378906 214.230469 164.972656 C 214.328125 164.871094 214.425781 164.761719 214.53125 164.65625 C 214.636719 164.550781 214.742188 164.4375 214.851562 164.324219 C 215.070312 164.097656 215.300781 163.859375 215.535156 163.601562 C 215.773438 163.347656 216.019531 163.078125 216.273438 162.796875 C 216.53125 162.519531 216.800781 162.230469 217.074219 161.921875 C 217.210938 161.769531 217.351562 161.613281 217.492188 161.453125 C 217.636719 161.296875 217.777344 161.128906 217.925781 160.96875 C 218.222656 160.640625 218.523438 160.296875 218.832031 159.941406 C 218.988281 159.765625 219.144531 159.582031 219.300781 159.398438 C 219.460938 159.214844 219.625 159.03125 219.789062 158.84375 C 219.953125 158.65625 220.121094 158.460938 220.289062 158.269531 C 220.371094 158.167969 220.457031 158.070312 220.539062 157.972656 C 220.625 157.871094 220.710938 157.769531 220.796875 157.671875 C 222.53125 155.652344 224.078125 153.554688 225.4375 151.414062 C 225.605469 151.148438 225.773438 150.878906 225.9375 150.605469 L 226.058594 150.402344 L 226.183594 150.199219 C 226.261719 150.066406 226.34375 149.933594 226.421875 149.796875 C 226.582031 149.527344 226.738281 149.253906 226.890625 148.976562 C 227.046875 148.710938 227.195312 148.4375 227.34375 148.164062 C 227.488281 147.886719 227.636719 147.613281 227.78125 147.339844 C 227.925781 147.066406 228.0625 146.789062 228.203125 146.507812 C 228.269531 146.367188 228.339844 146.234375 228.40625 146.09375 C 228.476562 145.957031 228.542969 145.820312 228.609375 145.679688 C 228.742188 145.402344 228.871094 145.121094 229.003906 144.839844 C 229.695312 143.339844 230.367188 141.886719 231.03125 140.484375 C 231.695312 139.082031 232.351562 137.734375 233.019531 136.429688 C 233.1875 136.097656 233.351562 135.785156 233.523438 135.460938 C 233.605469 135.296875 233.691406 135.144531 233.777344 134.984375 C 233.820312 134.90625 233.859375 134.828125 233.902344 134.746094 C 233.945312 134.667969 233.988281 134.585938 234.03125 134.511719 C 234.117188 134.355469 234.203125 134.199219 234.289062 134.042969 L 234.355469 133.925781 L 234.421875 133.8125 C 234.464844 133.734375 234.507812 133.660156 234.550781 133.582031 C 234.597656 133.507812 234.640625 133.429688 234.683594 133.351562 C 234.730469 133.273438 234.773438 133.203125 234.816406 133.125 C 234.90625 132.976562 234.996094 132.824219 235.085938 132.671875 C 235.179688 132.523438 235.269531 132.375 235.359375 132.226562 C 235.453125 132.078125 235.542969 131.9375 235.640625 131.789062 L 235.78125 131.570312 C 235.828125 131.5 235.875 131.429688 235.925781 131.359375 C 236.019531 131.210938 236.125 131.074219 236.226562 130.929688 C 236.277344 130.855469 236.328125 130.789062 236.378906 130.71875 C 236.433594 130.648438 236.484375 130.578125 236.539062 130.507812 C 236.59375 130.4375 236.644531 130.371094 236.699219 130.304688 C 236.753906 130.234375 236.808594 130.164062 236.863281 130.101562 C 237.085938 129.832031 237.316406 129.566406 237.550781 129.332031 C 237.339844 129.152344 237.117188 128.988281 236.890625 128.832031 C 236.773438 128.75 236.65625 128.679688 236.539062 128.605469 C 236.417969 128.53125 236.296875 128.460938 236.171875 128.390625 C 235.679688 128.117188 235.148438 127.878906 234.578125 127.675781 C 233.4375 127.269531 232.179688 127 230.847656 126.863281 C 229.96875 126.765625 229.074219 126.753906 228.164062 126.796875 C 227.9375 126.808594 227.710938 126.824219 227.484375 126.84375 L 227.140625 126.878906 C 227.027344 126.886719 226.910156 126.902344 226.800781 126.914062 C 226.570312 126.945312 226.34375 126.976562 226.113281 127.011719 L 225.769531 127.066406 C 225.65625 127.085938 225.542969 127.109375 225.429688 127.132812 C 223.605469 127.480469 221.796875 128.070312 220.0625 128.859375 C 219.847656 128.957031 219.632812 129.058594 219.417969 129.164062 C 219.203125 129.265625 218.984375 129.371094 218.777344 129.484375 C 218.355469 129.707031 217.9375 129.9375 217.519531 130.179688 C 217.113281 130.425781 216.707031 130.683594 216.304688 130.945312 C 216.101562 131.078125 215.90625 131.214844 215.710938 131.351562 C 215.515625 131.492188 215.320312 131.628906 215.125 131.773438 L 214.835938 131.988281 C 214.738281 132.058594 214.640625 132.132812 214.546875 132.207031 C 214.359375 132.355469 214.175781 132.503906 213.988281 132.65625 C 213.617188 132.960938 213.246094 133.269531 212.894531 133.597656 C 212.539062 133.917969 212.191406 134.246094 211.847656 134.582031 C 211.511719 134.921875 211.179688 135.269531 210.855469 135.625 C 209.046875 137.601562 207.625 139.445312 206.472656 141.070312 C 206.1875 141.476562 205.925781 141.871094 205.671875 142.25 C 205.546875 142.441406 205.421875 142.625 205.304688 142.808594 C 205.242188 142.898438 205.183594 142.992188 205.125 143.078125 C 205.070312 143.167969 205.015625 143.257812 204.960938 143.347656 C 204.527344 144.050781 204.140625 144.691406 203.8125 145.269531 C 203.492188 145.851562 203.21875 146.363281 202.992188 146.808594 C 202.878906 147.03125 202.773438 147.238281 202.679688 147.425781 C 202.59375 147.613281 202.511719 147.785156 202.441406 147.9375 C 202.164062 148.550781 202.039062 148.867188 202.039062 148.867188 C 202.066406 148.359375 202.132812 147.8125 202.230469 147.234375 C 202.328125 146.660156 202.472656 146.058594 202.636719 145.433594 C 202.71875 145.121094 202.808594 144.804688 202.90625 144.484375 C 203.007812 144.164062 203.117188 143.839844 203.230469 143.515625 C 203.34375 143.1875 203.460938 142.855469 203.585938 142.523438 C 203.648438 142.359375 203.710938 142.191406 203.773438 142.023438 C 203.84375 141.859375 203.910156 141.691406 203.980469 141.527344 C 204.117188 141.191406 204.261719 140.859375 204.410156 140.523438 C 204.484375 140.355469 204.558594 140.1875 204.632812 140.019531 L 204.742188 139.769531 L 204.863281 139.519531 C 205.179688 138.859375 205.507812 138.199219 205.84375 137.554688 C 206.1875 136.910156 206.539062 136.28125 206.882812 135.667969 C 207.242188 135.0625 207.597656 134.480469 207.941406 133.925781 C 205.335938 135.628906 202.792969 137.59375 200.339844 139.769531 C 200.039062 140.042969 199.734375 140.320312 199.429688 140.597656 C 199.277344 140.738281 199.125 140.878906 198.972656 141.019531 C 198.820312 141.160156 198.667969 141.300781 198.523438 141.445312 C 197.925781 142.015625 197.332031 142.601562 196.738281 143.195312 C 196.15625 143.792969 195.578125 144.402344 194.996094 145.019531 C 194.859375 145.167969 194.726562 145.316406 194.589844 145.464844 C 194.230469 145.859375 193.875 146.261719 193.523438 146.664062 C 193.445312 146.75 193.371094 146.832031 193.296875 146.917969 C 191.0625 149.492188 188.941406 152.246094 186.949219 155.148438 C 186.457031 155.871094 185.964844 156.609375 185.480469 157.351562 C 185.007812 158.09375 184.535156 158.847656 184.070312 159.609375 C 183.953125 159.796875 183.835938 159.988281 183.71875 160.179688 C 183.605469 160.371094 183.492188 160.5625 183.378906 160.753906 C 183.15625 161.140625 182.933594 161.527344 182.710938 161.914062 C 182.484375 162.304688 182.265625 162.695312 182.042969 163.085938 C 181.929688 163.28125 181.828125 163.480469 181.71875 163.675781 C 181.613281 163.875 181.507812 164.070312 181.398438 164.269531 C 181.167969 164.703125 180.9375 165.140625 180.707031 165.574219 C 180.480469 166.011719 180.25 166.445312 180.039062 166.878906 C 179.605469 167.753906 179.179688 168.625 178.765625 169.496094 C 178.558594 169.929688 178.363281 170.367188 178.167969 170.800781 C 177.972656 171.238281 177.777344 171.671875 177.589844 172.105469 C 177.398438 172.539062 177.210938 172.976562 177.023438 173.40625 C 176.84375 173.84375 176.667969 174.277344 176.492188 174.710938 C 176.144531 175.578125 175.804688 176.441406 175.476562 177.304688 C 175.160156 178.167969 174.851562 179.027344 174.554688 179.886719 C 174.402344 180.3125 174.257812 180.742188 174.113281 181.167969 C 173.976562 181.597656 173.839844 182.023438 173.707031 182.449219 C 173.4375 183.300781 173.179688 184.148438 172.933594 184.992188 C 172.832031 185.328125 172.746094 185.664062 172.660156 186.003906 C 172.570312 186.339844 172.488281 186.679688 172.410156 187.019531 C 172.253906 187.695312 172.113281 188.371094 171.988281 189.050781 C 171.863281 189.730469 171.769531 190.410156 171.683594 191.085938 C 171.601562 191.765625 171.535156 192.441406 171.488281 193.117188 C 171.449219 193.632812 171.417969 194.136719 171.394531 194.621094 C 171.371094 195.109375 171.355469 195.578125 171.34375 196.03125 C 171.316406 196.9375 171.308594 197.78125 171.3125 198.558594 C 171.3125 199.335938 171.335938 200.046875 171.367188 200.695312 C 171.398438 201.34375 171.433594 201.925781 171.476562 202.445312 C 171.558594 203.480469 171.652344 204.257812 171.726562 204.773438 C 171.804688 205.292969 171.863281 205.554688 171.863281 205.554688 C 171.652344 205.242188 171.453125 204.902344 171.265625 204.53125 C 171.074219 204.164062 170.894531 203.769531 170.722656 203.351562 C 170.382812 202.515625 170.070312 201.589844 169.792969 200.617188 C 169.523438 203.023438 169.367188 205.359375 169.3125 207.617188 C 169.296875 208.28125 169.289062 208.941406 169.289062 209.59375 C 169.308594 215.195312 169.988281 220.253906 171.25 224.570312 L 170.683594 226.160156 L 170.128906 227.753906 L 169.019531 230.945312 C 168.832031 231.476562 168.65625 232.011719 168.476562 232.542969 L 167.398438 235.746094 L 167.128906 236.542969 L 166.992188 236.945312 L 166.859375 237.34375 L 166.871094 237.347656 C 166.726562 237.78125 166.582031 238.21875 166.4375 238.65625 C 166.085938 239.722656 165.75 240.777344 165.429688 241.820312 C 165.347656 242.082031 165.269531 242.34375 165.191406 242.601562 C 165.113281 242.863281 165.039062 243.121094 164.964844 243.378906 C 164.8125 243.894531 164.667969 244.40625 164.523438 244.914062 C 164.40625 245.328125 164.292969 245.734375 164.183594 246.144531 L 161.078125 256.117188 C 161.007812 256.339844 161.296875 256.496094 161.441406 256.316406 C 163.121094 254.269531 166.523438 251.78125 167.484375 251.09375 C 167.597656 251.015625 167.582031 250.84375 167.460938 250.78125 C 166.621094 250.347656 165.984375 249.667969 165.5 248.957031 C 170.496094 233.292969 175.285156 220.207031 179.730469 209.308594 C 180.023438 208.585938 180.316406 207.878906 180.609375 207.175781 C 191.421875 181.09375 200.113281 168.054688 204.703125 162.261719 C 205.183594 161.65625 205.617188 161.132812 206.003906 160.679688 C 207.472656 158.960938 208.269531 158.28125 208.269531 158.28125 C 207.5625 159.105469 206.863281 159.957031 206.164062 160.839844 C 205.746094 161.375 205.324219 161.917969 204.90625 162.472656 C 195.859375 174.480469 187.855469 190.957031 181.296875 207.21875 C 181.007812 207.9375 180.722656 208.652344 180.4375 209.367188 C 178.1875 215.054688 176.113281 220.6875 174.238281 226.066406 C 176.246094 224.882812 178.253906 223.4375 180.292969 221.78125 C 180.808594 221.355469 181.324219 220.921875 181.839844 220.46875 C 182.355469 220.015625 182.867188 219.550781 183.386719 219.070312 C 184.425781 218.117188 185.457031 217.105469 186.484375 216.042969 C 188.320312 214.152344 190.144531 212.105469 191.957031 209.917969 C 192.609375 209.132812 193.257812 208.328125 193.90625 207.507812 C 195.5 205.484375 197.078125 203.359375 198.640625 201.148438 " fill-opacity="1" fill-rule="nonzero"/></g></svg>